<svg width="17" height="7" viewBox="0 0 17 7" fill="none" xmlns="http://www.w3.org/2000/svg">
<path d="M0.258125 3.24C0.258125 2.68 0.371458 2.19 0.598125 1.77C0.824792 1.34333 1.13479 1.01333 1.52813 0.78C1.92813 0.546666 2.37146 0.43 2.85813 0.43C3.33813 0.43 3.75479 0.533333 4.10813 0.74C4.46146 0.946666 4.72479 1.20667 4.89813 1.52V0.52H5.81813V6H4.89813V4.98C4.71813 5.3 4.44813 5.56667 4.08813 5.78C3.73479 5.98667 3.32146 6.09 2.84813 6.09C2.36146 6.09 1.92146 5.97 1.52813 5.73C1.13479 5.49 0.824792 5.15333 0.598125 4.72C0.371458 4.28667 0.258125 3.79333 0.258125 3.24ZM4.89813 3.25C4.89813 2.83667 4.81479 2.47667 4.64813 2.17C4.48146 1.86333 4.25479 1.63 3.96813 1.47C3.68813 1.30333 3.37813 1.22 3.03813 1.22C2.69813 1.22 2.38813 1.3 2.10813 1.46C1.82813 1.62 1.60479 1.85333 1.43813 2.16C1.27146 2.46667 1.18813 2.82667 1.18813 3.24C1.18813 3.66 1.27146 4.02667 1.43813 4.34C1.60479 4.64667 1.82813 4.88333 2.10813 5.05C2.38813 5.21 2.69813 5.29 3.03813 5.29C3.37813 5.29 3.68813 5.21 3.96813 5.05C4.25479 4.88333 4.48146 4.64667 4.64813 4.34C4.81479 4.02667 4.89813 3.66333 4.89813 3.25Z" fill="#0B2D41"/>
<path d="M14.3259 0.36C15.0193 0.36 15.5693 0.57 15.9759 0.99C16.3893 1.41 16.5959 1.99333 16.5959 2.74V6H14.8959V2.97C14.8959 2.61 14.7993 2.33333 14.6059 2.14C14.4193 1.94 14.1593 1.84 13.8259 1.84C13.4926 1.84 13.2293 1.94 13.0359 2.14C12.8493 2.33333 12.7559 2.61 12.7559 2.97V6H11.0559V2.97C11.0559 2.61 10.9593 2.33333 10.7659 2.14C10.5793 1.94 10.3193 1.84 9.98594 1.84C9.6526 1.84 9.38927 1.94 9.19594 2.14C9.00927 2.33333 8.91594 2.61 8.91594 2.97V6H7.20594V0.42H8.91594V1.12C9.08927 0.886667 9.31594 0.703333 9.59594 0.57C9.87594 0.43 10.1926 0.36 10.5459 0.36C10.9659 0.36 11.3393 0.45 11.6659 0.63C11.9993 0.81 12.2593 1.06667 12.4459 1.4C12.6393 1.09333 12.9026 0.843333 13.2359 0.65C13.5693 0.456667 13.9326 0.36 14.3259 0.36Z" fill="#5DCB31"/>
</svg>
