<svg width="214" height="32" viewBox="0 0 214 32" fill="none" xmlns="http://www.w3.org/2000/svg">
<path d="M0.29 14.72C0.29 13.04 0.63 11.57 1.31 10.31C1.99 9.03 2.92 8.04 4.1 7.34C5.3 6.64 6.63 6.29 8.09 6.29C9.53 6.29 10.78 6.6 11.84 7.22C12.9 7.84 13.69 8.62 14.21 9.56V6.56H16.97V23H14.21V19.94C13.67 20.9 12.86 21.7 11.78 22.34C10.72 22.96 9.48 23.27 8.06 23.27C6.6 23.27 5.28 22.91 4.1 22.19C2.92 21.47 1.99 20.46 1.31 19.16C0.63 17.86 0.29 16.38 0.29 14.72ZM14.21 14.75C14.21 13.51 13.96 12.43 13.46 11.51C12.96 10.59 12.28 9.89 11.42 9.41C10.58 8.91 9.65 8.66 8.63 8.66C7.61 8.66 6.68 8.9 5.84 9.38C5 9.86 4.33 10.56 3.83 11.48C3.33 12.4 3.08 13.48 3.08 14.72C3.08 15.98 3.33 17.08 3.83 18.02C4.33 18.94 5 19.65 5.84 20.15C6.68 20.63 7.61 20.87 8.63 20.87C9.65 20.87 10.58 20.63 11.42 20.15C12.28 19.65 12.96 18.94 13.46 18.02C13.96 17.08 14.21 15.99 14.21 14.75ZM28.3634 6.29C29.7834 6.29 31.0234 6.6 32.0834 7.22C33.1634 7.84 33.9634 8.62 34.4834 9.56V6.56H37.2434V23.36C37.2434 24.86 36.9234 26.19 36.2834 27.35C35.6434 28.53 34.7234 29.45 33.5234 30.11C32.3434 30.77 30.9634 31.1 29.3834 31.1C27.2234 31.1 25.4234 30.59 23.9834 29.57C22.5434 28.55 21.6934 27.16 21.4334 25.4H24.1334C24.4334 26.4 25.0534 27.2 25.9934 27.8C26.9334 28.42 28.0634 28.73 29.3834 28.73C30.8834 28.73 32.1034 28.26 33.0434 27.32C34.0034 26.38 34.4834 25.06 34.4834 23.36V19.91C33.9434 20.87 33.1434 21.67 32.0834 22.31C31.0234 22.95 29.7834 23.27 28.3634 23.27C26.9034 23.27 25.5734 22.91 24.3734 22.19C23.1934 21.47 22.2634 20.46 21.5834 19.16C20.9034 17.86 20.5634 16.38 20.5634 14.72C20.5634 13.04 20.9034 11.57 21.5834 10.31C22.2634 9.03 23.1934 8.04 24.3734 7.34C25.5734 6.64 26.9034 6.29 28.3634 6.29ZM34.4834 14.75C34.4834 13.51 34.2334 12.43 33.7334 11.51C33.2334 10.59 32.5534 9.89 31.6934 9.41C30.8534 8.91 29.9234 8.66 28.9034 8.66C27.8834 8.66 26.9534 8.9 26.1134 9.38C25.2734 9.86 24.6034 10.56 24.1034 11.48C23.6034 12.4 23.3534 13.48 23.3534 14.72C23.3534 15.98 23.6034 17.08 24.1034 18.02C24.6034 18.94 25.2734 19.65 26.1134 20.15C26.9534 20.63 27.8834 20.87 28.9034 20.87C29.9234 20.87 30.8534 20.63 31.6934 20.15C32.5534 19.65 33.2334 18.94 33.7334 18.02C34.2334 17.08 34.4834 15.99 34.4834 14.75ZM56.8569 14.15C56.8569 14.67 56.8269 15.22 56.7669 15.8H43.6269C43.7269 17.42 44.2769 18.69 45.2769 19.61C46.2969 20.51 47.5269 20.96 48.9669 20.96C50.1469 20.96 51.1269 20.69 51.9069 20.15C52.7069 19.59 53.2669 18.85 53.5869 17.93H56.5269C56.0869 19.51 55.2069 20.8 53.8869 21.8C52.5669 22.78 50.9269 23.27 48.9669 23.27C47.4069 23.27 46.0069 22.92 44.7669 22.22C43.5469 21.52 42.5869 20.53 41.8869 19.25C41.1869 17.95 40.8369 16.45 40.8369 14.75C40.8369 13.05 41.1769 11.56 41.8569 10.28C42.5369 9 43.4869 8.02 44.7069 7.34C45.9469 6.64 47.3669 6.29 48.9669 6.29C50.5269 6.29 51.9069 6.63 53.1069 7.31C54.3069 7.99 55.2269 8.93 55.8669 10.13C56.5269 11.31 56.8569 12.65 56.8569 14.15ZM54.0369 13.58C54.0369 12.54 53.8069 11.65 53.3469 10.91C52.8869 10.15 52.2569 9.58 51.4569 9.2C50.6769 8.8 49.8069 8.6 48.8469 8.6C47.4669 8.6 46.2869 9.04 45.3069 9.92C44.3469 10.8 43.7969 12.02 43.6569 13.58H54.0369ZM68.4704 6.26C70.4704 6.26 72.0904 6.87 73.3304 8.09C74.5704 9.29 75.1904 11.03 75.1904 13.31V23H72.4904V13.7C72.4904 12.06 72.0804 10.81 71.2604 9.95C70.4404 9.07 69.3204 8.63 67.9004 8.63C66.4604 8.63 65.3104 9.08 64.4504 9.98C63.6104 10.88 63.1904 12.19 63.1904 13.91V23H60.4604V6.56H63.1904V8.9C63.7304 8.06 64.4604 7.41 65.3804 6.95C66.3204 6.49 67.3504 6.26 68.4704 6.26ZM78.6298 14.75C78.6298 13.05 78.9698 11.57 79.6498 10.31C80.3298 9.03 81.2698 8.04 82.4698 7.34C83.6898 6.64 85.0798 6.29 86.6398 6.29C88.6598 6.29 90.3198 6.78 91.6198 7.76C92.9398 8.74 93.8098 10.1 94.2298 11.84H91.2898C91.0098 10.84 90.4598 10.05 89.6398 9.47C88.8398 8.89 87.8398 8.6 86.6398 8.6C85.0798 8.6 83.8198 9.14 82.8598 10.22C81.8998 11.28 81.4198 12.79 81.4198 14.75C81.4198 16.73 81.8998 18.26 82.8598 19.34C83.8198 20.42 85.0798 20.96 86.6398 20.96C87.8398 20.96 88.8398 20.68 89.6398 20.12C90.4398 19.56 90.9898 18.76 91.2898 17.72H94.2298C93.7898 19.4 92.9098 20.75 91.5898 21.77C90.2698 22.77 88.6198 23.27 86.6398 23.27C85.0798 23.27 83.6898 22.92 82.4698 22.22C81.2698 21.52 80.3298 20.53 79.6498 19.25C78.9698 17.97 78.6298 16.47 78.6298 14.75ZM112.033 6.56L102.133 30.74H99.3125L102.553 22.82L95.9225 6.56H98.9525L104.113 19.88L109.213 6.56H112.033Z" fill="white"/>
<path d="M135.687 6.08C137.767 6.08 139.417 6.71 140.637 7.97C141.877 9.23 142.497 10.98 142.497 13.22V23H137.397V13.91C137.397 12.83 137.107 12 136.527 11.42C135.967 10.82 135.187 10.52 134.187 10.52C133.187 10.52 132.397 10.82 131.817 11.42C131.257 12 130.977 12.83 130.977 13.91V23H125.877V13.91C125.877 12.83 125.587 12 125.007 11.42C124.447 10.82 123.667 10.52 122.667 10.52C121.667 10.52 120.877 10.82 120.297 11.42C119.737 12 119.457 12.83 119.457 13.91V23H114.327V6.26H119.457V8.36C119.977 7.66 120.657 7.11 121.497 6.71C122.337 6.29 123.287 6.08 124.347 6.08C125.607 6.08 126.727 6.35 127.707 6.89C128.707 7.43 129.487 8.2 130.047 9.2C130.627 8.28 131.417 7.53 132.417 6.95C133.417 6.37 134.507 6.08 135.687 6.08ZM145.065 14.6C145.065 12.88 145.385 11.37 146.025 10.07C146.685 8.77 147.575 7.77 148.695 7.07C149.815 6.37 151.065 6.02 152.445 6.02C153.625 6.02 154.655 6.26 155.535 6.74C156.435 7.22 157.125 7.85 157.605 8.63V6.26H162.735V23H157.605V20.63C157.105 21.41 156.405 22.04 155.505 22.52C154.625 23 153.595 23.24 152.415 23.24C151.055 23.24 149.815 22.89 148.695 22.19C147.575 21.47 146.685 20.46 146.025 19.16C145.385 17.84 145.065 16.32 145.065 14.6ZM157.605 14.63C157.605 13.35 157.245 12.34 156.525 11.6C155.825 10.86 154.965 10.49 153.945 10.49C152.925 10.49 152.055 10.86 151.335 11.6C150.635 12.32 150.285 13.32 150.285 14.6C150.285 15.88 150.635 16.9 151.335 17.66C152.055 18.4 152.925 18.77 153.945 18.77C154.965 18.77 155.825 18.4 156.525 17.66C157.245 16.92 157.605 15.91 157.605 14.63ZM175.776 18.65V23H173.166C171.306 23 169.856 22.55 168.816 21.65C167.776 20.73 167.256 19.24 167.256 17.18V10.52H165.216V6.26H167.256V2.18H172.386V6.26H175.746V10.52H172.386V17.24C172.386 17.74 172.506 18.1 172.746 18.32C172.986 18.54 173.386 18.65 173.946 18.65H175.776ZM177.613 14.63C177.613 12.89 177.963 11.37 178.663 10.07C179.383 8.77 180.373 7.77 181.633 7.07C182.913 6.37 184.373 6.02 186.013 6.02C188.113 6.02 189.863 6.57 191.263 7.67C192.683 8.77 193.613 10.32 194.053 12.32H188.593C188.133 11.04 187.243 10.4 185.923 10.4C184.983 10.4 184.233 10.77 183.673 11.51C183.113 12.23 182.833 13.27 182.833 14.63C182.833 15.99 183.113 17.04 183.673 17.78C184.233 18.5 184.983 18.86 185.923 18.86C187.243 18.86 188.133 18.22 188.593 16.94H194.053C193.613 18.9 192.683 20.44 191.263 21.56C189.843 22.68 188.093 23.24 186.013 23.24C184.373 23.24 182.913 22.89 181.633 22.19C180.373 21.49 179.383 20.49 178.663 19.19C177.963 17.89 177.613 16.37 177.613 14.63ZM207.088 6.08C209.008 6.08 210.548 6.72 211.708 8C212.868 9.26 213.448 11 213.448 13.22V23H208.348V13.91C208.348 12.79 208.058 11.92 207.478 11.3C206.898 10.68 206.118 10.37 205.138 10.37C204.158 10.37 203.378 10.68 202.798 11.3C202.218 11.92 201.928 12.79 201.928 13.91V23H196.798V0.8H201.928V8.51C202.448 7.77 203.158 7.18 204.058 6.74C204.958 6.3 205.968 6.08 207.088 6.08Z" fill="#46B21A"/>
</svg>
